<svg width="28" height="61" viewBox="0 0 28 61" fill="none" xmlns="http://www.w3.org/2000/svg">
<path d="M14.5342 58.4421C14.1124 59.1551 14.3485 60.075 15.0616 60.4968C15.7746 60.9185 16.6945 60.6824 17.1163 59.9694L14.5342 58.4421ZM20.9027 50.6215L19.6116 49.8578L19.6116 49.8578L20.9027 50.6215ZM10.5959 10.7051L9.83597 11.9983L9.83597 11.9983L10.5959 10.7051ZM1.62013 4.20035C0.818308 4.40861 0.337131 5.22744 0.545391 6.02927L3.93919 19.0957C4.14745 19.8975 4.96629 20.3787 5.76811 20.1705C6.56993 19.9622 7.05111 19.1434 6.84285 18.3415L3.82614 6.72692L15.4408 3.7102C16.2426 3.50194 16.7238 2.68311 16.5155 1.88129C16.3072 1.07947 15.4884 0.598288 14.6866 0.806549L1.62013 4.20035ZM17.1163 59.9694L22.1938 51.3851L19.6116 49.8578L14.5342 58.4421L17.1163 59.9694ZM11.3559 9.41185L2.75717 4.35894L1.23726 6.94542L9.83597 11.9983L11.3559 9.41185ZM22.1938 51.3851C27.0209 43.2241 28.5405 35.1635 26.6516 27.8482C24.7628 20.5329 19.5307 14.2157 11.3559 9.41185L9.83597 11.9983C17.5052 16.5051 22.1045 22.2373 23.7469 28.5982C25.3894 34.9591 24.1403 42.2015 19.6116 49.8578L22.1938 51.3851Z" fill="#18A187"/>
</svg>
