<svg width="114" height="128" viewBox="0 0 114 128" fill="none" xmlns="http://www.w3.org/2000/svg">
<g filter="url(#filter0_dd_3767_20074)">
<g opacity="0.25">
<path d="M108 66.8198C108 78.2933 104.208 88.8847 97.8131 97.4057C94.8932 101.298 91.428 104.758 87.5332 107.673C87.2743 107.864 87.0155 108.055 86.7542 108.243C78.379 114.269 68.1041 117.82 57 117.82C46.2025 117.82 36.1864 114.463 27.9419 108.736C27.6805 108.555 27.4217 108.372 27.1629 108.183C22.9489 105.14 19.2199 101.469 16.1115 97.3052C9.76168 88.8018 6 78.248 6 66.8198C6 38.6537 28.8339 15.8198 57 15.8198C85.1661 15.8198 108 38.6537 108 66.8198Z" fill="#40902A"/>
</g>
<path d="M81.9195 66.112C81.9195 73.516 70.7056 79.5178 56.8729 79.5178C43.0401 79.5178 31.8262 73.516 31.8262 66.112C31.8262 58.7082 43.0401 53.853 56.8729 53.853C70.7056 53.853 81.9195 58.7082 81.9195 66.112Z" fill="#18A187"/>
<path d="M74.2031 77.1683C74.2031 83.9645 66.3257 89.4741 56.6084 89.4741C46.8911 89.4741 39.0137 83.9645 39.0137 77.1683C39.0137 70.3722 46.8911 65.9155 56.6084 65.9155C66.3257 65.9155 74.2031 70.3722 74.2031 77.1683Z" fill="#17345C"/>
<path d="M91.0764 84.5682C96.7704 91.7206 94.8523 102.197 87.5329 107.674C87.2741 107.865 87.0153 108.056 86.754 108.245C78.3788 114.271 68.1039 117.821 56.9998 117.821C46.2022 117.821 36.1862 114.464 27.9416 108.737C27.6803 108.556 27.4215 108.373 27.1627 108.185C19.2781 102.491 17.4143 91.2595 23.5748 83.7341C27.0866 79.4443 31.6998 75.7218 37.7577 73.2502C40.0107 72.331 42.5473 73.1648 44.0709 75.0622C45.2118 76.483 46.9357 77.3096 48.7579 77.3096H65.5682C67.3327 77.3096 69.0277 76.6213 70.2925 75.3909C72.084 73.6483 74.7099 72.9897 77.0084 73.9708C83.1488 76.5916 87.7046 80.3328 91.0764 84.5682Z" fill="#18A187"/>
<path d="M27.9411 102.477V108.736C27.6797 108.555 27.4209 108.372 27.1621 108.183V102.477C27.1621 102.261 27.3355 102.087 27.5516 102.087C27.7652 102.087 27.9411 102.261 27.9411 102.477Z" fill="#17345C"/>
<path d="M87.5329 102.477V107.673C87.2741 107.864 87.0152 108.055 86.7539 108.244V102.477C86.7539 102.261 86.9273 102.087 87.1434 102.087C87.357 102.087 87.5329 102.261 87.5329 102.477Z" fill="#17345C"/>
<mask id="mask0_3767_20074" style="mask-type:luminance" maskUnits="userSpaceOnUse" x="48" y="37" width="18" height="46">
<path d="M57.2828 37.1694H56.7184C52.1556 37.1694 48.457 40.4074 48.457 44.4015V75.7611C48.457 79.7552 52.1556 82.9932 56.7184 82.9932H57.2828C61.8455 82.9932 65.5441 79.7552 65.5441 75.7611V44.4015C65.5441 40.4074 61.8455 37.1694 57.2828 37.1694Z" fill="white"/>
</mask>
<g mask="url(#mask0_3767_20074)">
<path d="M56.9325 83.0089C52.2278 83.0089 48.4141 79.195 48.4141 74.4902V45.899C48.4141 41.1943 52.2278 37.3803 56.9325 37.3803C61.6372 37.3803 65.4509 41.1943 65.4509 45.899V74.4902C65.4509 79.195 61.6372 83.0089 56.9325 83.0089Z" fill="#FFD9BA"/>
<path d="M65.4519 45.898V69.0442C59.1889 68.6439 53.3673 66.6083 48.416 63.353V45.898C48.416 41.1945 52.2305 37.3803 56.9339 37.3803C59.2872 37.3803 61.4183 38.3329 62.9587 39.8765C64.499 41.4169 65.4519 43.5445 65.4519 45.898Z" fill="#F4C7A6"/>
</g>
<path d="M41.9982 69.0971C49.6901 71.3589 43.0081 82.9304 36.3683 78.4365C35.6555 77.954 35.0623 77.3884 34.6206 76.7178C34.0501 75.8515 33.9617 74.7645 34.2073 73.7567C34.4496 72.7622 34.9371 71.4267 35.9164 70.1799" fill="#18A187"/>
<path d="M55.0389 82.9784C55.0228 82.9784 55.0067 82.9769 54.9907 82.9724C52.8623 82.4158 50.3545 82.0605 47.9297 81.7177C42.1085 80.8943 36.089 80.043 34.1735 76.3303C34.1253 76.2368 34.1622 76.1215 34.2562 76.0735C34.3484 76.0255 34.4643 76.0612 34.5135 76.1554C36.3383 79.6924 42.2582 80.5294 47.9832 81.3391C50.4188 81.6843 52.9374 82.0401 55.0871 82.6028C55.1894 82.6294 55.2502 82.7334 55.2236 82.8362C55.2012 82.9221 55.1236 82.9784 55.0389 82.9784Z" fill="#15A600"/>
<path d="M56.681 82.9793C56.6103 82.9793 56.5422 82.9399 56.5091 82.8723C55.2652 80.323 50.5386 71.8069 41.9436 69.2797C41.8426 69.2501 41.7848 69.1433 41.8144 69.0423C41.8441 68.942 41.9514 68.885 42.0516 68.9131C50.7965 71.4845 55.5911 80.12 56.8526 82.7049C56.8986 82.7999 56.8594 82.914 56.7644 82.9605C56.7372 82.9733 56.7091 82.9793 56.681 82.9793Z" fill="#15A600"/>
<path d="M52.376 80.1121C52.376 80.5495 52.0104 80.9043 51.5591 80.9043C51.1081 80.9043 50.7422 80.5495 50.7422 80.1121C50.7422 79.6746 51.1081 79.3198 51.5591 79.3198C52.0104 79.3198 52.376 79.6746 52.376 80.1121Z" fill="#15A600"/>
<path d="M72.2284 69.0971C64.5365 71.3589 71.2185 82.9303 77.8582 78.4364C78.571 77.954 79.1642 77.3884 79.6058 76.718C80.1765 75.8516 80.2649 74.7644 80.0193 73.7565C79.7769 72.7621 79.2894 71.4266 78.3102 70.1799" fill="#18A187"/>
<path d="M57.5446 82.9794C57.5164 82.9794 57.4883 82.9731 57.4612 82.9603C57.3662 82.9138 57.3267 82.7999 57.3727 82.705C58.6341 80.12 63.4288 71.4845 72.1739 68.9131C72.2777 68.8842 72.3817 68.942 72.4111 69.0423C72.4408 69.1433 72.383 69.2499 72.282 69.2795C63.6869 71.8066 58.9603 80.3228 57.7165 82.8721C57.6835 82.9397 57.6154 82.9794 57.5446 82.9794Z" fill="#279571"/>
<path d="M61.8516 80.1121C61.8516 80.5495 62.2172 80.9043 62.6685 80.9043C63.1195 80.9043 63.4854 80.5495 63.4854 80.1121C63.4854 79.6746 63.1195 79.3198 62.6685 79.3198C62.2172 79.3198 61.8516 79.6746 61.8516 80.1121Z" fill="#15A600"/>
<path d="M51.8381 110.493C51.6511 110.493 51.4891 110.354 51.4647 110.163C51.4607 110.132 51.0689 107.013 51.0865 103.196C51.1106 98.0413 51.829 94.1289 53.2227 91.5668C54.7459 88.7658 55.1754 86.2753 54.4989 84.1658C53.6699 81.5814 51.4172 80.463 51.3946 80.4519C51.2076 80.3612 51.1292 80.1358 51.2194 79.9488C51.3099 79.7614 51.5348 79.6832 51.7218 79.7729C51.8258 79.8227 54.2785 81.0298 55.2125 83.9231C55.9606 86.2392 55.5133 88.9319 53.8845 91.9269C50.6925 97.7961 52.1969 109.946 52.2125 110.068C52.2386 110.274 52.0926 110.463 51.8861 110.49C51.87 110.492 51.8539 110.493 51.8381 110.493Z" fill="#F1D9CD"/>
<path d="M63.0968 110.491C63.087 110.491 63.0769 110.491 63.0671 110.49C62.8596 110.474 62.7045 110.292 62.7206 110.085C62.7241 110.037 63.0179 105.18 57.9204 99.5218C55.3613 96.6813 55.3626 92.3636 57.9234 87.0347C59.8246 83.078 62.5022 79.8988 62.5289 79.8671C62.6631 79.708 62.9005 79.6887 63.0601 79.8234C63.2189 79.9578 63.2385 80.1958 63.1041 80.3546C63.0003 80.4772 52.7822 92.6922 58.4802 99.0172C63.8109 104.934 63.4885 109.933 63.4722 110.143C63.4569 110.341 63.2915 110.491 63.0968 110.491Z" fill="#F1D9CD"/>
<path d="M82.1739 42.727C82.1739 44.9863 80.3423 46.8179 78.083 46.8179C75.8238 46.8179 73.9922 44.9863 73.9922 42.727C73.9922 40.4678 75.8238 38.6362 78.083 38.6362C80.3423 38.6362 82.1739 40.4678 82.1739 42.727Z" fill="#F5C8A6"/>
<path d="M40.0079 42.727C40.0079 44.9863 38.1763 46.8179 35.917 46.8179C33.6578 46.8179 31.8262 44.9863 31.8262 42.727C31.8262 40.4678 33.6578 38.6362 35.917 38.6362C38.1763 38.6362 40.0079 40.4678 40.0079 42.727Z" fill="#F5C8A6"/>
<path d="M67.1869 60.8494C61.0587 65.2531 52.8036 65.2531 46.6754 60.8494C39.8777 55.9645 35.8477 48.1059 35.8477 39.7353V29.7099C35.8477 18.0658 45.287 8.6264 56.9311 8.6264C68.5752 8.6264 78.0146 18.0658 78.0146 29.7099V39.7353C78.0146 48.1059 73.9846 55.9645 67.1869 60.8494Z" fill="#FFD9BA"/>
<path d="M56.9311 56.3913C53.8281 56.3913 51.3125 53.8759 51.3125 50.7729H62.5497C62.5497 53.8759 60.0341 56.3913 56.9311 56.3913Z" fill="white"/>
<path d="M56.9306 47.1668C55.5961 47.1668 54.552 46.017 54.6807 44.6887L55.1433 39.9093C55.2325 38.9889 56.0059 38.2866 56.9306 38.2866C57.8553 38.2866 58.6288 38.9889 58.718 39.9093L59.1806 44.6887C59.3093 46.017 58.2652 47.1668 56.9306 47.1668Z" fill="#F4C7A6"/>
<path d="M47.9697 42.1731C46.6185 42.1731 45.5234 41.0781 45.5234 39.7269C45.5234 38.3758 46.6185 37.2807 47.9697 37.2807C49.3208 37.2807 50.4159 38.3758 50.4159 39.7269C50.4159 41.0781 49.3208 42.1731 47.9697 42.1731Z" fill="#563C00"/>
<path d="M65.5184 42.1732C64.1672 42.1732 63.0721 41.0781 63.0721 39.727C63.0721 38.3758 64.1672 37.2808 65.5184 37.2808C66.8695 37.2808 67.9646 38.3758 67.9646 39.727C67.9646 41.0781 66.8695 42.1732 65.5184 42.1732Z" fill="#563C00"/>
<path d="M49.9046 34.169H45.7046C45.0629 34.169 44.543 33.6488 44.543 33.0071C44.543 32.3653 45.0629 31.8452 45.7046 31.8452H49.9046C50.5463 31.8452 51.0662 32.3653 51.0662 33.0071C51.0662 33.6488 50.5463 34.169 49.9046 34.169Z" fill="#563C00"/>
<path d="M67.6174 34.169H63.4175C62.7758 34.169 62.2559 33.6488 62.2559 33.0071C62.2559 32.3653 62.7758 31.8452 63.4175 31.8452H67.6174C68.2592 31.8452 68.7791 32.3653 68.7791 33.0071C68.7791 33.6488 68.2592 34.169 67.6174 34.169Z" fill="#563C00"/>
<path d="M35.2857 37.9311C35.2857 37.9311 31.7414 18.8446 37.6211 15.8202C43.5009 12.7958 44.5442 19.3944 44.5442 19.3944C44.5442 19.3944 39.5181 38.1357 35.9969 37.8824C35.6501 37.8824 35.2857 37.9311 35.2857 37.9311Z" fill="#563C00"/>
<path d="M79.7397 38.2304C79.7397 38.2304 83.6514 19.2853 76.905 15.8199C70.1586 12.3545 68.1074 19.3941 68.1074 19.3941C68.1074 19.3941 71.9859 32.9806 77.6141 37.9095C79.0628 37.8824 79.7397 38.2304 79.7397 38.2304Z" fill="#563C00"/>
<path d="M44.9549 23.1955C44.9549 23.1955 61.9334 28.8267 73.768 19.6941C81.7864 13.5066 81.2479 7.16878 79.3442 5.96892C75.1837 3.34655 72.8441 8.44881 72.8441 8.44881C72.8441 8.44881 75.1252 2.259 68.5185 2.09592C64.6146 1.99968 63.017 5.81237 63.017 5.81237C63.017 5.81237 62.7097 5.0344 61.9925 4.14838C59.3664 0.904346 54.9963 1.57753 52.0875 4.53686C46.8609 9.85397 40.1461 8.31789 38.0226 16.0068C36.5701 21.2656 44.9549 23.1955 44.9549 23.1955Z" fill="#563C00"/>
</g>
<defs>
<filter id="filter0_dd_3767_20074" x="0" y="-0.000549316" width="114" height="127.822" filterUnits="userSpaceOnUse" color-interpolation-filters="sRGB">
<feFlood flood-opacity="0" result="BackgroundImageFix"/>
<feColorMatrix in="SourceAlpha" type="matrix" values="0 0 0 0 0 0 0 0 0 0 0 0 0 0 0 0 0 0 127 0" result="hardAlpha"/>
<feMorphology radius="2" operator="erode" in="SourceAlpha" result="effect1_dropShadow_3767_20074"/>
<feOffset dy="2"/>
<feGaussianBlur stdDeviation="2"/>
<feColorMatrix type="matrix" values="0 0 0 0 0.0627451 0 0 0 0 0.0941176 0 0 0 0 0.156863 0 0 0 0.02 0"/>
<feBlend mode="normal" in2="BackgroundImageFix" result="effect1_dropShadow_3767_20074"/>
<feColorMatrix in="SourceAlpha" type="matrix" values="0 0 0 0 0 0 0 0 0 0 0 0 0 0 0 0 0 0 127 0" result="hardAlpha"/>
<feMorphology radius="2" operator="erode" in="SourceAlpha" result="effect2_dropShadow_3767_20074"/>
<feOffset dy="4"/>
<feGaussianBlur stdDeviation="4"/>
<feColorMatrix type="matrix" values="0 0 0 0 0.0627451 0 0 0 0 0.0941176 0 0 0 0 0.156863 0 0 0 0.05 0"/>
<feBlend mode="normal" in2="effect1_dropShadow_3767_20074" result="effect2_dropShadow_3767_20074"/>
<feBlend mode="normal" in="SourceGraphic" in2="effect2_dropShadow_3767_20074" result="shape"/>
</filter>
</defs>
</svg>
